<?xml version="1.0" standalone="no"?>
<!DOCTYPE svg PUBLIC "-//W3C//DTD SVG 20010904//EN"
 "http://www.w3.org/TR/2001/REC-SVG-20010904/DTD/svg10.dtd">
<svg version="1.0" xmlns="http://www.w3.org/2000/svg"
 width="882.000000pt" height="564.000000pt" viewBox="0 0 882.000000 564.000000"
 preserveAspectRatio="xMidYMid meet">
<metadata>
Created by potrace 1.15, written by Peter Selinger 2001-2017
</metadata>
<g transform="translate(0.000000,564.000000) scale(0.100000,-0.100000)"
fill="#000000" stroke="none">
<path d="M4914 5291 c8 -12 -6 -14 -61 -11 -19 1 -33 -3 -33 -10 0 -6 -4 -8
-10 -5 -22 13 -8 -25 15 -43 30 -24 33 -37 5 -20 -15 10 -22 10 -32 0 -9 -9
-8 -12 9 -12 16 0 20 -5 16 -20 -3 -11 0 -27 7 -35 25 -30 -22 -16 -52 15 -28
30 -52 38 -63 21 -3 -5 3 -12 12 -15 10 -4 38 -23 62 -45 l43 -38 -31 5 c-17
2 -34 8 -37 13 -3 5 -16 9 -30 9 -20 0 -24 -5 -24 -29 0 -20 -6 -32 -19 -36
-26 -8 -35 -47 -14 -62 24 -19 26 -61 2 -68 -11 -4 -17 -11 -14 -16 4 -5 -3
-9 -14 -9 -16 0 -21 -6 -21 -24 0 -14 4 -27 9 -30 5 -4 5 -23 -2 -47 -12 -48
1 -63 42 -47 14 5 22 6 19 2 -4 -4 -3 -16 3 -27 8 -15 8 -18 -1 -12 -8 5 -11
1 -8 -11 2 -12 11 -18 22 -16 10 2 16 -1 13 -6 -10 -15 43 -62 71 -64 15 0 32
-2 37 -3 6 -2 17 -4 25 -5 8 -1 -1 -6 -20 -10 -21 -5 -36 -5 -38 1 -2 5 -14 9
-27 9 -13 0 -26 4 -30 10 -3 5 -20 19 -37 31 l-31 23 6 -23 c6 -25 -3 -24 -76
9 -37 17 -67 17 -67 1 0 -10 99 -53 108 -47 4 2 16 -2 26 -9 18 -13 17 -14 -5
-19 -13 -3 -60 -7 -104 -10 -73 -4 -82 -7 -102 -33 -29 -35 -29 -42 1 -74 13
-14 29 -35 35 -47 6 -12 21 -22 31 -22 23 0 24 3 9 33 -9 20 -9 20 4 5 8 -10
18 -18 23 -18 5 0 22 -14 39 -31 29 -29 29 -30 7 -36 -12 -3 -22 -11 -22 -18
0 -19 28 -38 48 -33 11 3 24 -4 35 -18 14 -19 15 -23 2 -18 -25 10 -17 -12 12
-32 14 -10 34 -27 45 -36 10 -10 23 -18 29 -18 16 0 69 -40 69 -51 0 -14 27
-40 37 -37 9 3 96 -53 101 -64 2 -5 10 -8 18 -8 8 0 14 -5 14 -10 0 -6 10 -14
23 -19 12 -5 51 -34 86 -65 36 -31 69 -56 75 -56 6 0 31 -21 56 -48 25 -26 63
-60 85 -77 22 -16 47 -38 56 -48 12 -14 18 -16 24 -8 4 7 -1 22 -12 34 -18 22
-18 22 2 6 63 -48 120 -102 120 -112 0 -7 10 -13 23 -13 13 -1 35 -12 50 -26
15 -13 40 -30 56 -38 l29 -15 -27 -10 c-17 -6 -25 -14 -21 -24 5 -12 -24 -13
-209 -8 -120 3 -216 2 -218 -3 -5 -14 -191 -15 -196 -1 -4 13 -62 15 -62 2 0
-5 8 -12 18 -14 9 -2 -1 -2 -23 1 -22 2 -48 8 -57 13 -9 5 -105 9 -212 9 -124
0 -196 4 -196 10 0 6 -9 10 -21 10 -11 0 -17 -4 -14 -10 4 -6 -23 -10 -72 -11
-43 0 -88 -2 -100 -5 -16 -3 -23 1 -23 11 0 12 -13 15 -59 15 -33 0 -61 -5
-63 -10 -4 -13 -127 -25 -162 -16 -15 4 -24 11 -21 16 4 6 -9 10 -29 10 -19 0
-37 -6 -40 -12 -5 -10 -7 -10 -12 0 -3 6 -17 12 -30 12 -14 0 -22 -4 -19 -10
3 -5 -3 -10 -14 -10 -12 0 -21 4 -21 8 0 5 -23 9 -50 10 -29 0 -48 -3 -45 -9
4 -5 1 -9 -4 -9 -6 0 -11 5 -11 10 0 6 -28 10 -64 10 -36 0 -68 -4 -71 -10 -3
-5 -35 -10 -71 -10 -36 0 -63 4 -60 8 2 4 -25 5 -62 0 -95 -10 -124 -10 -117
2 3 6 -3 10 -15 10 -12 0 -18 -4 -15 -10 4 -6 -7 -10 -25 -10 -18 0 -29 4 -25
10 3 6 0 10 -9 10 -8 0 -16 -4 -18 -9 -3 -11 -24 -12 -458 -13 -689 -2 -958 1
-1005 10 -41 8 -44 10 -17 11 39 1 42 17 4 25 -43 8 -320 19 -515 20 -149 1
-180 -2 -188 -14 -7 -13 -10 -13 -18 -1 -10 15 -41 8 -41 -9 0 -6 8 -10 18 -9
29 3 31 0 22 -32 -8 -26 -6 -31 13 -40 18 -7 16 -8 -11 -3 -30 5 -33 3 -38
-25 -5 -24 -12 -31 -29 -31 -12 0 -30 -10 -39 -23 -12 -15 -18 -18 -22 -9 -12
27 -114 3 -114 -27 0 -8 -3 -12 -6 -8 -4 3 -19 0 -33 -8 -24 -12 -27 -18 -23
-50 3 -27 8 -35 19 -31 9 4 13 1 10 -6 -2 -7 -14 -11 -27 -10 -28 4 -100 -17
-100 -30 0 -4 5 -8 10 -8 6 0 10 -4 10 -8 0 -5 -17 -9 -37 -9 -21 0 -28 2 -16
4 23 4 32 23 12 23 -6 0 -9 7 -5 15 4 10 -1 15 -15 15 -16 0 -19 -4 -14 -22 6
-16 4 -20 -9 -15 -8 3 -18 2 -21 -3 -4 -6 -19 -10 -35 -10 -22 0 -28 4 -24 15
4 10 0 15 -11 15 -11 0 -15 -5 -12 -15 6 -15 -36 -55 -58 -55 -7 0 -12 -11
-12 -24 0 -20 5 -25 33 -28 19 -2 34 -1 34 3 0 4 23 7 50 7 28 0 50 -4 50 -9
0 -5 -8 -10 -17 -10 -10 -1 -25 -2 -33 -3 -8 0 -19 4 -23 9 -6 6 -10 6 -14 -2
-2 -7 -16 -13 -29 -13 -13 0 -24 -5 -24 -11 0 -6 8 -8 19 -4 14 4 21 0 26 -15
4 -14 16 -20 38 -21 22 -1 26 -3 12 -6 -11 -3 -22 -9 -25 -13 -3 -4 -26 -5
-51 -1 -52 8 -69 5 -69 -13 0 -9 20 -13 66 -14 37 -1 69 -3 71 -6 3 -3 -14
-10 -37 -17 -45 -14 -59 -31 -41 -52 6 -8 8 -29 5 -49 -6 -35 8 -54 39 -57 12
-1 37 -28 31 -33 -2 -3 -6 -14 -8 -24 -3 -11 -7 -27 -11 -36 -5 -11 2 -22 21
-34 15 -10 33 -33 40 -51 14 -33 28 -41 39 -23 4 6 11 7 17 4 8 -5 9 -1 5 10
-6 14 -3 17 9 12 8 -3 18 -6 20 -6 2 0 4 -9 4 -21 0 -15 5 -19 15 -15 8 3 30
-1 49 -9 32 -13 37 -13 81 11 26 14 55 23 64 21 14 -4 14 -5 0 -6 -9 0 -24
-12 -33 -26 -15 -23 -45 -37 -31 -15 8 14 -8 13 -22 -1 -6 -6 -32 -10 -57 -8
-32 3 -46 0 -46 -8 0 -7 8 -13 18 -14 9 -1 -14 -11 -52 -23 -85 -27 -103 -51
-30 -40 27 4 51 10 54 14 3 4 21 11 40 14 l35 7 -38 -33 c-129 -112 -140 -125
-133 -160 5 -27 13 -36 43 -46 64 -23 103 -26 103 -9 0 8 -13 17 -32 21 -51
10 -28 14 47 7 69 -6 70 -6 68 -33 -2 -25 2 -28 28 -28 21 0 29 5 29 17 0 13
3 14 12 5 7 -7 20 -12 30 -12 10 0 21 -7 24 -15 5 -13 22 -14 101 -9 66 4 94
3 89 -4 -4 -7 4 -10 21 -8 16 2 28 4 28 5 0 8 287 10 308 2 15 -6 29 -6 32 -1
6 10 71 7 224 -10 57 -6 106 -9 108 -6 13 13 -12 26 -50 27 -23 0 -36 3 -29 6
22 9 223 -8 216 -18 -3 -5 0 -9 5 -9 6 0 11 5 11 11 0 6 19 9 48 8 26 -1 53 1
60 5 7 4 17 4 23 0 6 -3 16 0 21 7 7 10 7 7 3 -8 -8 -28 4 -29 31 -5 22 21
104 38 104 22 0 -16 32 -12 53 7 19 17 19 17 13 -4 -4 -14 -3 -23 3 -23 5 0
12 8 16 19 4 13 12 17 30 13 15 -2 25 0 25 7 0 7 19 11 48 10 26 0 41 -3 35
-6 -21 -8 -15 -23 8 -23 14 0 19 5 16 15 -6 15 16 15 96 0 21 -4 37 -4 37 2 0
5 21 10 46 11 41 1 45 0 39 -18 -5 -16 -2 -20 14 -20 12 0 21 -7 21 -15 0 -8
5 -15 11 -15 6 0 9 7 5 15 -3 8 -1 15 5 15 6 0 9 7 6 14 -4 10 -1 13 7 10 8
-3 11 -15 8 -30 -2 -14 0 -24 7 -24 6 0 11 8 11 18 0 16 14 17 174 15 255 -3
725 -45 737 -65 8 -13 39 -3 39 12 0 5 -8 10 -17 11 -10 0 -3 6 15 13 18 6 30
15 26 19 -4 4 22 8 57 9 70 2 588 9 629 8 14 0 81 0 150 0 93 0 120 -2 108
-10 -10 -6 -18 -15 -18 -19 0 -15 79 -22 103 -10 18 9 20 9 10 -2 -20 -21 -15
-29 17 -29 17 0 30 5 30 10 0 7 6 7 18 1 9 -5 29 -9 45 -9 23 0 27 5 27 29 0
31 -23 41 -34 14 -7 -19 -26 -19 -26 0 0 12 -13 15 -61 15 -37 0 -58 -4 -54
-10 3 -5 -1 -10 -9 -10 -18 0 -30 16 -18 24 5 3 57 6 116 7 58 1 106 5 106 10
0 4 11 2 25 -5 13 -7 55 -14 92 -15 37 -1 75 -4 84 -7 9 -2 23 2 31 10 13 13
108 18 108 6 0 -3 -14 -10 -32 -15 -40 -13 -49 -35 -14 -35 14 0 26 5 26 10 0
6 9 10 20 10 11 0 20 4 20 9 0 12 70 19 77 8 3 -5 16 -6 30 -2 22 5 24 3 18
-16 -5 -15 -3 -20 6 -17 8 3 14 14 14 26 0 11 5 25 9 29 5 4 6 3 3 -4 -5 -8
13 -14 58 -18 36 -4 68 -12 72 -18 4 -7 0 -8 -11 -4 -25 10 -66 -3 -66 -20 0
-11 5 -13 18 -8 24 10 96 6 100 -6 6 -15 32 -10 32 6 0 8 -7 15 -15 15 -8 0
-15 5 -15 11 0 8 14 10 41 6 31 -4 39 -2 35 8 -7 18 15 25 80 25 43 0 52 -3
48 -15 -4 -10 0 -15 12 -15 9 0 14 -3 10 -8 -10 -9 -12 -9 -96 -11 -55 -1 -70
-4 -70 -16 0 -8 9 -15 20 -15 14 0 18 -5 13 -16 -3 -9 -9 -11 -12 -6 -8 13
-151 15 -151 2 0 -6 27 -10 67 -10 l66 0 -29 -25 c-16 -14 -33 -26 -39 -26 -5
-1 -17 -2 -25 -3 -8 0 -14 -8 -13 -16 1 -8 -23 -34 -52 -57 -51 -40 -53 -41
-59 -20 -6 24 5 33 -139 -104 -38 -35 -73 -64 -80 -64 -6 0 -31 -20 -56 -45
-25 -25 -86 -72 -136 -105 -49 -33 -96 -65 -103 -72 -8 -7 -18 -11 -23 -7 -10
6 -39 -19 -39 -34 0 -15 -33 -40 -62 -47 -16 -4 -26 -10 -23 -14 2 -4 -9 -15
-26 -25 -16 -9 -29 -21 -29 -27 0 -5 -7 -9 -15 -9 -8 0 -15 -5 -15 -11 0 -6 8
-8 18 -5 14 5 13 3 -3 -10 -11 -8 -19 -19 -18 -24 1 -4 -5 -7 -15 -5 -24 4
-52 -13 -52 -31 0 -8 4 -13 9 -10 5 3 14 0 20 -7 8 -10 2 -21 -23 -45 -36 -34
-59 -42 -50 -17 11 28 -24 16 -50 -17 -14 -18 -33 -42 -42 -52 -15 -17 -16
-22 -3 -45 21 -37 59 -52 132 -52 34 0 75 -3 91 -6 l30 -5 -25 -13 c-13 -7
-27 -11 -31 -9 -10 6 -108 -38 -108 -48 0 -15 55 -8 99 12 53 25 54 25 46 0
-3 -11 -4 -20 -1 -20 6 0 45 32 72 58 22 22 17 -6 -6 -30 -11 -12 -20 -28 -20
-35 0 -7 -6 -13 -14 -13 -21 0 -30 -18 -17 -34 12 -14 -12 -56 -31 -56 -7 0
-3 7 8 15 18 14 17 14 -13 15 -37 0 -37 -1 -23 -49 6 -22 6 -40 -1 -53 -15
-27 -3 -54 31 -68 22 -9 28 -17 26 -37 -2 -14 -11 -30 -20 -35 -20 -11 -12
-47 15 -66 11 -7 19 -24 19 -38 0 -27 12 -29 58 -13 56 19 55 4 -2 -39 -31
-24 -54 -47 -51 -52 8 -13 33 -6 52 17 10 11 36 30 58 42 38 21 39 21 16 1
-17 -15 -22 -26 -17 -45 5 -20 3 -25 -14 -25 -11 0 -20 -4 -20 -10 0 -11 33
-14 44 -3 10 10 46 11 40 1 -4 -5 -12 -7 -20 -4 -8 3 -14 1 -14 -4 0 -5 -9
-12 -20 -15 -22 -7 -28 -44 -7 -47 15 -1 66 -6 90 -7 11 -1 15 -6 11 -12 -4
-7 -1 -10 7 -7 8 3 14 11 14 19 0 12 19 31 35 35 3 0 13 4 24 9 11 5 21 4 25
-3 4 -6 12 -7 20 -3 7 5 11 13 7 19 -3 5 0 14 7 20 13 11 17 12 45 12 9 0 29
11 44 25 15 14 30 21 33 15 3 -5 -13 -21 -35 -36 -30 -20 -38 -30 -29 -38 8
-8 13 -8 16 2 3 6 9 10 14 6 5 -3 9 0 9 5 0 16 30 14 36 -2 5 -14 42 -17 62
-4 20 14 14 29 -10 22 -19 -5 -20 -4 -8 5 45 32 49 32 43 -5 -4 -27 -2 -35 8
-32 8 2 11 2 7 0 -5 -3 -8 -11 -8 -19 0 -17 31 -19 48 -2 17 17 15 28 -5 21
-10 -3 -1 7 20 21 20 15 37 31 37 37 0 6 9 8 20 4 10 -3 29 -1 41 6 18 9 24 8
31 -5 5 -9 13 -14 19 -11 5 4 9 2 9 -4 0 -6 7 -8 16 -4 9 3 23 -3 35 -15 23
-25 25 -42 4 -42 -16 0 -21 -15 -7 -24 11 -7 43 20 34 29 -4 4 3 5 16 2 13 -3
28 1 36 9 8 8 20 14 26 14 6 0 9 4 6 9 -3 5 6 12 20 15 15 4 24 10 21 13 -9 9
17 30 66 53 25 12 67 42 94 67 64 61 128 113 139 113 5 1 20 14 34 30 13 17
29 30 35 30 7 0 38 25 70 55 31 30 61 55 66 55 5 0 9 5 9 10 0 6 7 10 15 10 8
0 15 7 15 17 0 15 -1 15 -18 0 -10 -10 -22 -17 -26 -17 -4 0 -14 -6 -21 -12
-26 -24 -41 -33 -55 -36 -14 -3 11 22 74 70 16 13 43 37 60 53 35 34 106 88
106 81 0 -2 15 10 34 27 44 42 189 143 199 139 4 -1 10 5 13 13 4 8 11 15 16
15 6 0 18 8 27 19 16 18 85 61 98 61 4 0 -21 -21 -55 -46 -34 -25 -59 -50 -56
-55 3 -6 21 1 39 15 19 15 36 26 38 26 5 0 76 48 155 105 23 17 41 38 42 48 0
12 -4 16 -12 11 -9 -5 -9 -2 1 9 7 9 20 17 27 17 8 0 14 3 14 8 1 4 57 48 125
97 68 50 124 96 124 103 1 7 5 11 10 8 4 -3 32 12 61 34 29 22 57 37 61 34 4
-2 16 7 25 21 9 14 23 24 30 21 7 -3 18 2 24 10 7 8 9 14 5 14 -4 0 4 9 18 20
14 11 28 20 32 20 7 0 75 48 90 65 21 22 93 75 103 75 19 0 81 45 78 56 -2 6
6 10 18 10 14 -1 21 5 20 16 -1 10 3 15 8 12 5 -3 27 7 49 22 25 17 36 30 29
34 -14 8 11 20 41 20 11 0 22 6 25 14 3 7 21 22 40 32 21 12 34 26 34 39 0 13
20 34 57 60 76 53 87 60 79 46 -4 -6 -4 -11 0 -11 12 0 114 71 114 79 0 5 14
11 30 14 18 4 30 13 30 22 0 10 -5 14 -12 10 -7 -4 -4 1 6 9 24 20 30 20 46 1
14 -17 40 -20 40 -4 0 6 -7 18 -16 26 -12 13 -13 18 -3 24 8 4 16 4 19 0 8
-13 230 -25 230 -13 0 13 -50 22 -126 22 -41 0 -64 4 -64 11 0 8 19 10 63 5
162 -16 237 -19 237 -9 0 12 -79 27 -192 39 -72 7 -87 18 -38 28 17 3 30 12
30 20 0 24 80 76 107 70 20 -5 23 -3 21 17 -2 16 8 31 39 53 49 36 52 48 17
67 l-26 13 27 22 27 21 -46 33 c-32 23 -43 37 -36 44 5 5 10 16 10 23 0 16
-32 17 -46 3 -8 -8 -27 2 -65 32 -30 24 -71 55 -91 68 -21 14 -38 33 -38 43 0
9 -6 17 -12 17 -10 0 -9 3 1 9 13 9 7 31 -9 31 -15 0 -20 -32 -8 -49 7 -9 -9
2 -37 25 -27 22 -67 51 -87 63 -21 12 -38 30 -38 39 -1 22 -90 88 -99 74 -9
-16 -141 76 -141 98 0 22 -48 63 -66 56 -8 -3 -11 0 -8 8 5 13 -18 28 -46 30
-8 1 -14 6 -13 13 2 7 -7 18 -19 24 -13 7 -29 18 -37 26 -7 8 -20 12 -27 9 -7
-3 -11 0 -8 7 5 14 -81 75 -114 82 -23 4 -36 13 -85 59 -36 33 -126 96 -137
96 -13 0 -39 59 -28 62 15 5 -2 36 -23 41 -20 5 -36 -8 -20 -18 5 -3 16 -19
25 -35 l15 -30 -28 22 c-16 13 -28 27 -27 32 0 5 -11 12 -26 16 -15 5 -34 14
-42 22 -7 7 -24 20 -36 28 -35 24 -92 67 -134 102 -21 18 -50 39 -65 47 -59
32 -136 103 -134 125 2 15 -12 32 -47 59 -27 20 -54 37 -60 37 -5 0 -10 5 -10
10 0 6 -4 10 -10 10 -5 0 -36 18 -69 41 -78 54 -102 45 -28 -9 31 -24 57 -45
57 -47 0 -6 -63 32 -85 52 -11 10 -54 40 -95 68 -74 49 -185 130 -206 150 -6
5 -43 35 -83 65 -40 30 -91 72 -114 93 -37 35 -38 37 -11 25 16 -7 31 -15 34
-18 7 -7 49 -30 55 -30 17 0 0 20 -29 34 -19 9 -48 32 -65 51 -17 19 -33 35
-36 35 -6 0 -13 6 -57 44 -15 13 -55 46 -90 72 -35 27 -75 60 -89 74 -28 26
-37 33 -105 78 -75 50 -134 96 -134 105 0 4 -12 7 -27 5 -20 -2 -28 2 -28 12
0 8 -10 16 -22 18 -27 4 -30 -6 -7 -23 15 -11 15 -14 -6 -38 -13 -14 -27 -24
-32 -21 -5 3 -20 -1 -33 -10 -17 -11 -31 -13 -47 -7 -13 4 -28 6 -34 4 -15 -5
-69 49 -69 68 0 8 -12 15 -27 17 -31 4 -43 -21 -33 -69 l7 -30 -38 26 c-21 15
-41 28 -43 31 -9 8 33 -8 47 -19 8 -7 12 -5 12 6 0 20 -26 40 -41 31 -8 -4 -9
-3 -5 5 8 12 -36 61 -55 61 -17 0 -9 -19 15 -37 19 -15 22 -22 13 -40 -12 -27
-24 -29 -48 -7 -10 9 -23 14 -30 12 -6 -2 7 -16 30 -31 23 -15 39 -32 36 -37
-3 -5 -15 -2 -25 8 -11 9 -39 24 -62 33 -29 10 -42 20 -40 31 3 20 -25 31 -32
13 -7 -20 -81 17 -81 41 0 9 -6 19 -14 22 -8 3 -11 0 -7 -7z"/>
</g>
</svg>
